<?xml version="1.0" encoding="UTF-8"?>
<svg id="Layer_1" xmlns="http://www.w3.org/2000/svg" xmlns:xlink="http://www.w3.org/1999/xlink" version="1.1" viewBox="0 0 720 720">
  <!-- Generator: Adobe Illustrator 30.0.0, SVG Export Plug-In . SVG Version: 2.1.1 Build 123)  -->
  <defs>
    <style>
      .st0 {
        fill: #04b3e7;
      }

      .st1 {
        fill: #ff2121;
      }

      .st2 {
        fill: #05b7e9;
      }

      .st3 {
        fill: url(#linear-gradient);
      }

      .st4 {
        fill: #fff;
      }
    </style>
    <linearGradient id="linear-gradient" x1="0" y1="0" x2="720" y2="720" gradientUnits="userSpaceOnUse">
      <stop offset="0" stop-color="#08c5f2"/>
      <stop offset="1" stop-color="#03a6de"/>
    </linearGradient>
  </defs>
  <rect class="st3" width="720" height="720"/>
  <g>
    <path class="st4" d="M389.28,183.84c11.86,1.86,23.56,4.71,35.04,8.16-15.12,9.59-23,26.55-21.59,44.39,2.34,29.53,44.49,71.33,68,87.52,4.78,3.29,14.79,10.02,19.97,11.72.64.21,1.19.55,1.9.29,14.33-7.09,27.35-16.45,39.25-27.03,5.01-4.45,10.77-9.8,15.35-14.65,13.88,32.23,16.42,67.8,6.25,101.53-1.84,6.1-4.11,12.68-6.73,18.47-26.91,59.47-91.72,98.46-154.56,108.96-25.5,4.26-53.77,4.52-79.37.89-9.69-1.37-19.18-3.77-28.76-5.62l-82.9,72.41,22.48-98.11c-3.99-2.93-8.32-5.38-12.35-8.26-19.01-13.59-33.55-27.8-46.61-47.23-37.73-56.12-34.1-124.73,7.49-177.55,50.09-63.62,138.81-88.19,217.15-75.89ZM362.88,315.36h-115.2v21.12h201.6v-21.12h-201.6v21.12h201.6v-21.12h-86.4ZM342.24,390.24h-94.08v20.16h201.12v-20.16h-201.12v20.16h201.12v-20.16h-107.04Z"/>
    <path class="st1" d="M424.32,192c23.78-15.07,55.96-5.27,67.44,20.16,9.87-20.54,30.6-30.96,53.04-25.92,25.14,5.64,40.65,29.89,35.28,55.2-3.81,17.96-20.34,39.56-32.88,52.8-4.59,4.84-10.34,10.19-15.35,14.65-11.9,10.59-24.92,19.95-39.25,27.03-.71.26-1.26-.08-1.9-.29-5.18-1.7-15.19-8.43-19.97-11.72-23.51-16.19-65.66-57.99-68-87.52-1.41-17.84,6.47-34.81,21.59-44.39Z"/>
    <path class="st0" d="M342.24,390.24h107.04v20.16h-125.28c.06-.86.44-1.49.96-2.16,4.23-5.4,11.29-10.79,16.09-16.07.54-.6,1.2-.98,1.19-1.93Z"/>
    <path class="st2" d="M362.88,315.36c.19,1.1-.37,1.46-.94,2.18-4.67,5.79-12.05,10.99-16.84,16.76-.59.71-1.12,1.09-.94,2.18h-96.48v-21.12h201.6v21.12h-201.6v-21.12h115.2Z"/>
    <path class="st0" d="M362.88,315.36h86.4v21.12h-105.12c-.18-1.09.35-1.47.94-2.18,4.79-5.78,12.16-10.98,16.84-16.76.58-.71,1.13-1.08.94-2.18Z"/>
    <path class="st2" d="M342.24,390.24c.01.95-.65,1.33-1.19,1.93-4.8,5.29-11.86,10.67-16.09,16.07-.52.66-.9,1.3-.96,2.16h-75.84v-20.16h201.12v20.16h-201.12v-20.16h94.08Z"/>
  </g>
</svg>