<?xml version="1.0" encoding="UTF-8"?>
<svg id="Layer_1" xmlns="http://www.w3.org/2000/svg" xmlns:xlink="http://www.w3.org/1999/xlink" version="1.1" viewBox="0 0 720 720">
  <!-- Generator: Adobe Illustrator 30.0.0, SVG Export Plug-In . SVG Version: 2.1.1 Build 123)  -->
  <defs>
    <style>
      .st0 {
        fill: #ff2121;
      }

      .st1 {
        fill: #51a0cf;
      }

      .st2 {
        fill: #ffd408;
      }

      .st3 {
        fill: url(#linear-gradient);
        stroke: #000;
        stroke-miterlimit: 10;
      }

      .st4 {
        fill: #1d83ab;
      }
    </style>
    <linearGradient id="linear-gradient" x1="0" y1="0" x2="720" y2="720" gradientUnits="userSpaceOnUse">
      <stop offset="0" stop-color="#ffec03"/>
      <stop offset="1" stop-color="#ffc50b"/>
    </linearGradient>
  </defs>
  <rect class="st3" width="720" height="720"/>
  <g>
    <path class="st0" d="M339.84,572.16c-13.01-8.31-24.75-18.94-35.77-29.75-29.68-29.1-69.94-78.18-35.25-118.8,23.55-27.57,67.53-25.29,87.93,4.68,1.89,2.78,3.15,5.84,5.17,8.51,15.03-33.68,58.82-43.24,86.89-18.97,8.46,7.31,16.18,19.93,18.23,30.97,7.2,38.79-33.25,81.24-59.99,104.89-13.42,11.87-28.2,22.06-44.16,30.26-1.18.53-2.02.11-3.08-.31-5.51-2.2-14.72-8.12-19.97-11.47Z"/>
    <g>
      <path class="st1" d="M439.68,360.96v-189.6h82.8c6.29,0,14.64,9.21,14.64,15.6l.02,111.37c-.48,6.11-3.5,10.71-8.5,14.06l-87.17,48.19-1.78.38Z"/>
      <g>
        <path class="st1" d="M220.8,327.84c-10.19-5.65-20.23-11.81-30.68-17.08-3.48-2.98-5.68-6.98-6.22-11.54v-112.69c.17-6.23,8.43-15.17,14.58-15.17h83.76c0,31.51,0,63.05,0,94.56s0,63.37,0,95.04l-2.11-.53c-19.52-11.32-39.62-21.66-59.33-32.59Z"/>
        <g>
          <path class="st4" d="M378.72,171.36c15.99.02,32.01-.01,48,0v197.04l-61.79,34.21c-2.2.91-4.67.64-6.98.48l-62.26-34.22-.51-1.41.03-112.59c.01-27.83,0-55.69,0-83.52,27.83.03,55.69-.03,83.52,0ZM361.33,219.45c-1.82.25-3,1.3-4.19,2.56-6.37,6.72-11.36,17.45-17.78,24.46-10.24,3.86-21.24,6.11-31.15,10.61-2.9,3.25-2.15,5.34-.16,8.7,5.07,8.52,13.12,16.34,18.12,25.08.38,9.06-1.21,19.65-.25,28.58.51,4.79,3.6,6.64,8.19,5.78,8.77-1.65,19.05-7.42,28.06-9.32,9.01,1.91,19.28,7.67,28.06,9.32,3.62.68,7.52-.23,8.15-4.37,1.42-9.19-1.09-21.52.15-31.05,4.8-8.34,13.51-16.47,18.04-24.68,1.97-3.58,1.52-7.13-2.31-9.04-8.44-4.19-20.9-5.61-29.73-9.63l-18.08-25.12c-1.43-1.3-3.11-2.15-5.1-1.88Z"/>
          <path class="st2" d="M361.33,219.45c1.99-.28,3.67.57,5.1,1.88l18.08,25.12c8.83,4.01,21.3,5.43,29.73,9.63,3.83,1.9,4.28,5.46,2.31,9.04-4.53,8.21-13.24,16.34-18.04,24.68-1.24,9.53,1.27,21.86-.15,31.05-.64,4.14-4.54,5.05-8.15,4.37-8.78-1.65-19.05-7.41-28.06-9.32-9,1.9-19.28,7.67-28.06,9.32-4.59.86-7.67-.99-8.19-5.78-.96-8.92.63-19.52.25-28.58-5-8.73-13.05-16.55-18.12-25.08-2-3.36-2.74-5.45.16-8.7,9.9-4.5,20.91-6.76,31.15-10.61,6.42-7.01,11.41-17.74,17.78-24.46,1.19-1.26,2.37-2.31,4.19-2.56Z"/>
        </g>
      </g>
    </g>
  </g>
</svg>