<?xml version="1.0" encoding="UTF-8"?>
<svg id="Layer_1" xmlns="http://www.w3.org/2000/svg" xmlns:xlink="http://www.w3.org/1999/xlink" version="1.1" viewBox="0 0 720 720">
  <!-- Generator: Adobe Illustrator 30.0.0, SVG Export Plug-In . SVG Version: 2.1.1 Build 123)  -->
  <defs>
    <style>
      .st0 {
        fill: #ff2121;
      }

      .st1 {
        fill: url(#linear-gradient);
      }

      .st2 {
        fill: #fff;
      }
    </style>
    <linearGradient id="linear-gradient" x1="0" y1="0" x2="720" y2="720" gradientUnits="userSpaceOnUse">
      <stop offset="0" stop-color="#ff8f08"/>
      <stop offset="1" stop-color="#f87327"/>
    </linearGradient>
  </defs>
  <g>
    <rect class="st1" y="0" width="720" height="720"/>
    <path class="st2" d="M301.69,137.86c12.62-3.34,25.89-5.45,38.87-6.63v-27.95h38.87v27.95c51,4.19,99.74,26.8,136.99,62.28,5.13,4.88,11.12,10.99,15.73,16.35,4.15,4.83,8.2,10.3,11.95,15.48,25.03,34.63,40.58,76.4,44.05,119.51h27.3v39.79h-27.3c-6.36,84.17-58.81,159.07-133.43,193.81-23.47,10.93-49.51,18.05-75.28,19.81v27.95h-38.87v-27.24c0-.87-7.28-1.08-8.5-1.24-49.87-6.59-96.23-29-132.18-64.83-37.73-37.61-60.73-85.84-67.51-139.55-.16-1.25-.37-8.7-1.21-8.7h-26.61v-39.79h27.3c.4-10.48,2.24-21.01,4.39-31.27.96-4.55,2.61-9.25,3.48-13.73.15-.79.5-1.53.46-2.37.69-.26.34-1.03.46-1.42,1.1-3.41,2.06-7.06,3.24-10.42.22-.62,1.03-1.86,1.39-2.84,26.06-70.85,84.46-125.91,156.42-144.94ZM495.13,227.86c-3.67-3.79-7.13-7.64-11.1-11.14-28.85-25.46-66.5-42.22-104.6-45.7v45.95h-38.87v-45.95c-88.34,7.65-162.41,83.51-170.31,173.84h45.35v39.79h-45.35c3.43,39.81,20.11,78.44,45.58,108.48,3.14,3.7,6.57,6.98,9.96,10.41,29.39,29.78,67.6,49.88,108.98,54.95,1.92.24,3.89.58,5.79.94v-46.89h38.87v46.89c61.94-6.76,117.08-44.14,147.25-99.62,12.57-23.12,20.35-48.77,23.06-75.16h-45.35v-39.79h45.35c-4.18-39.33-19.89-77.21-45.11-107.06-3-3.55-6.29-6.63-9.49-9.94Z"/>
  </g>
  <path class="st0" d="M297.99,424.43c-22.08-21.28-56.54-61.63-58.77-93.56-4.69-67.39,80.08-96.28,115.42-39.5,1.27,2.05,2.22,4.59,3.4,6.45.29.46-.05.85,1.03.61,13.41-31.4,49.52-45.46,80.52-32.43,2.45,1.03,6.13,2.65,8.34,4.01,19.86,12.22,31.68,36.27,30.08,59.91-2.22,32.82-36.1,72.51-58.76,94.27-18.12,17.41-38.01,33.07-60.44,44.29-.57.11-1.07-.04-1.6-.21-1.5-.49-6.36-3.45-8.16-4.45-17.66-9.78-36.43-25.29-51.06-39.4Z"/>
</svg>