<?xml version="1.0" encoding="UTF-8"?>
<svg id="Layer_1" xmlns="http://www.w3.org/2000/svg" xmlns:xlink="http://www.w3.org/1999/xlink" version="1.1" viewBox="0 0 720 720">
  <!-- Generator: Adobe Illustrator 30.0.0, SVG Export Plug-In . SVG Version: 2.1.1 Build 123)  -->
  <defs>
    <style>
      .st0 {
        fill: #ff2121;
      }

      .st1 {
        fill: #cb9d5c;
      }

      .st2 {
        fill: url(#linear-gradient);
        stroke: #000;
        stroke-miterlimit: 10;
      }

      .st3 {
        fill: #fad198;
      }
    </style>
    <linearGradient id="linear-gradient" x1="0" y1="0" x2="720" y2="720" gradientUnits="userSpaceOnUse">
      <stop offset="0" stop-color="#891fde"/>
      <stop offset="1" stop-color="#6a12c6"/>
    </linearGradient>
  </defs>
  <rect class="st2" width="720" height="720"/>
  <g>
    <path class="st0" d="M335.52,220.8c7.53,5.09,15.64,14.35,20.36,22.12,1.14,1.88,1.92,4.34,3.04,6.06s1.46-1.29,2.27-2.75c33.25-59.98,122.25-42.68,130.33,23.53.11.9-.06,1.94,0,2.88.01.17-.03.82,0,1.44.02.32-.01.64,0,.96.1,2.38-.16,4.83,0,7.2-.6.56-.46,1.21-.48,1.92-.14,4.56-.85,8.04-1.44,12.48-1.41-.18-.79.18-.96.96-1.7,7.89-5.65,15.86-9.52,22.88-22.34,40.57-69.92,86.27-110.64,108.24-2.12,1.14-7.17,4.28-9.2,4.28-2.37,0-7.12-3.12-9.36-4.37-38.63-21.57-83.21-63.38-106.08-101.28-14.78-24.49-22.78-49.24-10.64-77.12,16.96-38.97,66.96-53.34,102.32-29.44Z"/>
    <g>
      <g>
        <path class="st3" d="M561.6,158.88c31.52,30.6,69.21,70.59,75.84,115.68,3.09,21.02,2.24,42.47,3.84,63.6,1.73,22.81,6.1,44.02,2.81,67.14-4.64,32.61-18.59,49.25-39.53,72.79-28.82,32.42-68.42,60.13-88.34,98.86-15.37,29.89-10.43,63.39-5.51,95.29l4.8,47.76h-133.92l15.78-96.78c4.6-33.73,3.39-68.42,7.8-102.12,3.53-26.95,18.2-54.43,38.33-72.55,29.21-26.27,70.44-40.06,82.91-80.77,8.61-28.1,6.41-63.9,32.91-82.77,1.79-1.27,8.17-5.26,9.95-5.65,3.39-.75,15.49.45,18.49,2.39,7.96,5.16,7.14,18.83,6.47,27.12-1.54,19.06-6.99,37.01-11.28,55.44-5.51,23.69-8.39,42.42-20.14,64.34-1.7,3.17-7.61,11.16-7.49,14.15.11,2.77,2.91,1.61,4.61.73,2.36-1.22,10.91-7.86,13.19-9.85,17.46-15.26,16.46-33.7,19.75-54.65,3.88-24.66,13.73-47.14,14.3-72.58.34-15.02-.74-38.62-20.38-40.54-5.95-.58-11.3,1.98-17.04,2.88-1.51-11.1-6.03-22.14-11.8-31.64-1.35-2.23-7.86-12.49-9.32-13.48-10.19-15.8-23.23-29.41-35.03-43.93-6.48-7.97-14.44-16.1-13.95-26.89.61-13.43,12.21-28.61,26.89-23.49,7.7,2.68,28.23,22.89,35.05,29.51Z"/>
        <path class="st1" d="M569.28,279.36c.29-1.41.97-2.58,1-4.08.03-1.38-.32-5.02-.52-6.48,5.73-.9,11.09-3.46,17.04-2.88,19.65,1.92,20.72,25.52,20.38,40.54-.57,25.44-10.42,47.92-14.3,72.58-3.29,20.94-2.29,39.38-19.75,54.65-2.28,1.99-10.83,8.63-13.19,9.85-1.71.88-4.5,2.04-4.61-.73-.12-2.99,5.79-10.98,7.49-14.15,11.75-21.91,14.63-40.65,20.14-64.34,4.29-18.43,9.75-36.38,11.28-55.44.67-8.29,1.49-21.96-6.47-27.12-2.99-1.94-15.09-3.15-18.49-2.39Z"/>
      </g>
      <g>
        <path class="st3" d="M151.2,268.8c-5.73-.9-11.09-3.46-17.04-2.88-19.65,1.92-20.72,25.52-20.38,40.54.57,25.44,10.42,47.92,14.3,72.58,3.29,20.94,2.29,39.38,19.75,54.65,2.28,1.99,10.83,8.63,13.19,9.85,1.71.88,4.5,2.04,4.61-.73.12-2.99-5.79-10.98-7.49-14.15-11.75-21.91-14.63-40.65-20.14-64.34-4.29-18.43-9.75-36.38-11.28-55.44-.67-8.29-1.49-21.96,6.47-27.12,2.99-1.94,15.09-3.15,18.49-2.39.62.14,5.27,2.62,6.2,3.16,31.85,18.41,27.3,61.09,39.4,91.4,8.09,20.28,22.35,33.38,40.17,45.51,26,17.68,47.28,30.32,63.51,58.65,7.1,12.39,12.23,25.49,14.32,39.68,5.12,34.68,3.46,70.68,8.3,105.46l15.78,96.78h-133.92l4.8-47.76c4.83-31.4,9.76-64.43-4.87-94.01-19.66-39.75-58.49-65.51-87.29-97.75-19.86-22.23-35.36-40.82-40.67-71.41-4.24-24.44.43-46.76,2.27-70.92,2.47-32.55-.68-67.14,14.16-97.2,15.56-31.55,42.07-59.29,67.2-83.52,6.9-6.66,25.75-25.55,33.74-28.18,15.74-5.17,29.51,15.36,26.18,29.54-2.43,10.36-18.96,26.61-26.06,35.38-17.01,21-39.87,47.18-43.69,74.63Z"/>
        <path class="st1" d="M151.2,268.8c-.2,1.43-.55,5.12-.52,6.48.03,1.5.71,2.67,1,4.08-3.39-.75-15.49.45-18.49,2.39-7.96,5.16-7.14,18.83-6.47,27.12,1.54,19.06,6.99,37.01,11.28,55.44,5.51,23.69,8.39,42.42,20.14,64.34,1.7,3.17,7.61,11.16,7.49,14.15-.11,2.77-2.91,1.61-4.61.73-2.36-1.22-10.91-7.86-13.19-9.85-17.46-15.26-16.46-33.7-19.75-54.65-3.88-24.66-13.73-47.14-14.3-72.58-.34-15.02.74-38.62,20.38-40.54,5.95-.58,11.3,1.98,17.04,2.88Z"/>
      </g>
    </g>
  </g>
</svg>