<?xml version="1.0" encoding="UTF-8"?>
<svg id="Layer_1" xmlns="http://www.w3.org/2000/svg" xmlns:xlink="http://www.w3.org/1999/xlink" version="1.1" viewBox="0 0 720 720">
  <!-- Generator: Adobe Illustrator 30.0.0, SVG Export Plug-In . SVG Version: 2.1.1 Build 123)  -->
  <defs>
    <style>
      .st0 {
        fill: #ff2121;
      }

      .st1 {
        fill: url(#linear-gradient);
      }

      .st2 {
        fill: #ca9c5c;
      }

      .st3 {
        fill: #fad198;
      }
    </style>
    <linearGradient id="linear-gradient" x1="0" y1="0" x2="720" y2="720" gradientUnits="userSpaceOnUse">
      <stop offset="0" stop-color="#08b472"/>
      <stop offset="1" stop-color="#0a8e41"/>
    </linearGradient>
  </defs>
  <rect class="st1" width="720" height="720"/>
  <path class="st0" d="M330.22,206.38c33.12,1.6,65.04,22.26,79.52,52.28,17.36-36.09,60.1-58.26,99.48-51.03s71.63,43.65,73.38,83.65c1.49,33.97-16.61,65.66-37.18,92.72-17,22.36-31.99,45.11-52.89,63.89-11.18,10.05-28.43,18.07-43.46,17.69-8.96-15.88-28.33-22.81-46.48-24.63s-38.09,2.72-55.89-1.25c-19.67-4.39-35.8-18.43-50.34-32.39-7.36-7.07-14.05-14.81-20.37-22.82-3.17-4.01-6.24-8.1-9.27-12.22s-5.55-8.27-8.82-11.88c-1.52-1.68-2.59-4.12-3.7-6.09-1.19-2.1-2.32-4.23-3.41-6.39-2.17-4.32-4.12-8.75-5.82-13.27-3.38-8.98-5.78-18.34-6.89-27.87s-.89-19.08.88-28.44c.09-.47.18-.94.28-1.41,7.59-36.77,41.04-66.44,78.39-70.23,4.19-.43,8.39-.53,12.57-.33Z"/>
  <g>
    <path class="st3" d="M193.44,347.04c30.16,1.18,56.47,15.4,78.72,34.56.22.19.78.86,1.44,1.44.17.15.31.33.48.48l.48.48c18.64,16.52,32.1,36.83,55.51,47.93,34.17,16.21,79.35-2.05,108.4,21.68,2.3,1.88,10.06,9.57,10.81,11.99,1.13,3.65,1.87,12.31,1.44,16.08-1.25,10.92-19.11,12.96-27.61,13.67-22.93,1.92-47.51-.81-70.54-1.94-18.33-.89-32.58-1.75-50.28-7.32-3.9-1.23-13.01-5.8-16.44-5.13-2.8.55-1.16,2.87-.02,4.32,3.94,5.02,16.33,15.05,22.15,17.69,15.04,6.83,28.96,3.86,44.56,3.4,29.5-.88,80.28,10.26,104.86-8.42,12.04-9.15,8.5-22.39,1.96-33.8,31.12-9.84,57.79-47.9,78.47-72.01,2.92-3.41,6.67-8.06,9.85-11.03.54-.51,1.6-1.67,1.92-1.92,15.98-12.16,46.33.24,38.29,21.25-5.09,13.29-21.95,36.96-30.61,49.31-16.78,23.94-38.82,51.15-62.92,67.88-25.58,17.75-62.75,22.17-92.6,30.04-42.03,11.08-76.15,24.02-118.09,1.69-17.04-9.07-35.02-20.43-50.87-31.45-30-20.86-53.03-42.78-89.76-52.32-33.09-8.59-56.65,1.96-87.47,11.17-18.48,5.52-37.14,10.5-55.57,16.19v-133.92l75.36-1.44c38.82.24,79.54-12.07,118.08-10.56Z"/>
    <path class="st2" d="M459.36,464.16c6.54,11.41,10.08,24.65-1.96,33.8-24.58,18.68-75.36,7.55-104.86,8.42-15.6.46-29.52,3.43-44.56-3.4-5.82-2.64-18.21-12.67-22.15-17.69-1.14-1.45-2.78-3.77.02-4.32,3.43-.67,12.54,3.9,16.44,5.13,17.71,5.57,31.95,6.42,50.28,7.32,23.02,1.12,47.6,3.85,70.54,1.94,8.5-.71,26.36-2.75,27.61-13.67.43-3.77-.31-12.43-1.44-16.08,3.16.13,7.06-.49,10.08-1.44Z"/>
  </g>
</svg>