<svg id="Layer_1" data-name="Layer 1" xmlns="http://www.w3.org/2000/svg" viewBox="0 0 256 256"><defs><style>.cls-1{fill:#39b39b;}.cls-2{fill:#fee4d8;}.cls-3{fill:#683c39;}.cls-4{fill:#935651;}.cls-5{fill:#e65336;}</style></defs><title>cans-in-hands</title><rect class="cls-1" width="256" height="256"/><path class="cls-2" d="M187.7,89a18.7,18.7,0,0,0,.3-3.4,18.42,18.42,0,0,0-18.1-18.4A46.91,46.91,0,0,0,79.2,83.9a34.7,34.7,0,1,0,20.3,64.5c6.2,9.5,18.6,16,32.8,16a41.48,41.48,0,0,0,26.7-9.2,36.63,36.63,0,0,0,13.3,2.6,36.15,36.15,0,0,0,36.1-36.1A35.56,35.56,0,0,0,187.7,89Z"/><path class="cls-3" d="M63.5,146.7l12.7,63.6c1,5,6.5,8.6,12.9,8.6h82.7c6.4,0,11.9-3.7,12.9-8.6l12.7-63.6H63.5Z"/><path class="cls-4" d="M94.2,160.8H92.6c-3.1,0-5.6,2.1-5.2,4.6l5.5,40.5c0.3,2.1,2.5,3.7,5.2,3.7h0c3.1,0,5.5-2,5.3-4.5l-4-40.5C99.3,162.5,97,160.8,94.2,160.8Z"/><path class="cls-4" d="M131.2,160.8h-1.6c-2.9,0-5.3,1.9-5.3,4.2l0.8,40.5c0,2.3,2.4,4.1,5.3,4.1h0c2.9,0,5.2-1.8,5.3-4.1l0.8-40.5C136.5,162.7,134.1,160.8,131.2,160.8Z"/><path class="cls-4" d="M168.1,160.8h-1.6c-2.8,0-5,1.7-5.3,3.8l-4,40.5c-0.2,2.4,2.2,4.5,5.3,4.5,2.7,0,5-1.6,5.2-3.7l5.5-40.5C173.7,162.9,171.3,160.8,168.1,160.8Z"/><path class="cls-5" d="M171.6,83.1a18.34,18.34,0,0,0-20.2,4,18.53,18.53,0,0,0-35.6-7.3c-4,9.4-.8,31.2,16.3,53.3,27.6-3,45.5-16.3,49.4-25.7A18.68,18.68,0,0,0,171.6,83.1Z"/></svg>