<svg id="Layer_1" data-name="Layer 1" xmlns="http://www.w3.org/2000/svg" viewBox="0 0 256 256"><defs><style>.cls-1{fill:#39b39b;}.cls-2{fill:#fff;}.cls-3{fill:#e65336;}</style></defs><title>clothes-for-ya-bros</title><rect class="cls-1" width="256" height="256"/><path class="cls-2" d="M186.7,56.6l-38-13.8S147,56.6,128,56.6s-20.7-13.8-20.7-13.8l-38,13.8L34.8,101.2l22.9,21.5L82.3,99.6V213.2h91.4V99.6l24.6,23.1,22.9-21.5Z"/><path class="cls-3" d="M156.3,119.9a15.83,15.83,0,0,0-15.8-15.8,15.63,15.63,0,0,0-12.5,6.2,15.63,15.63,0,0,0-12.5-6.2,15.82,15.82,0,0,0-12,26.1L128,155.6l24.5-25.4A16.3,16.3,0,0,0,156.3,119.9Z"/><path class="cls-2" d="M98.5,166.9H101v17.2h8.3v2.1H98.5V166.9Z"/><path class="cls-2" d="M127.4,176.4c0,6.7-4,10.2-9,10.2s-8.7-4-8.7-9.8c0-6.1,3.8-10.2,9-10.2S127.4,170.7,127.4,176.4Zm-15,.3c0,4.1,2.2,7.8,6.2,7.8s6.2-3.6,6.2-8c0-3.8-2-7.9-6.2-7.9S112.4,172.5,112.4,176.7Z"/><path class="cls-2" d="M134.9,186.3L128.6,167h2.7l3,9.5q1.2,3.9,2.1,7.2h0.1a64,64,0,0,1,2.2-7.2L142,167h2.7l-6.9,19.3h-2.9Z"/><path class="cls-2" d="M156.7,177.2h-7.5v7h8.4v2.1H146.7V167h10.4v2.1h-7.9v6.1h7.5v2Z"/></svg>