<svg id="Layer_1" data-name="Layer 1" xmlns="http://www.w3.org/2000/svg" viewBox="0 0 256 256"><defs><style>.cls-1{fill:#6db8e0;}.cls-2{fill:#e65336;}.cls-3{fill:#d6e1e2;}.cls-4{fill:#edf0f2;}</style></defs><title>love-the-lonely</title><rect class="cls-1" width="256" height="256"/><path class="cls-2" d="M149.3,89.9A23.09,23.09,0,0,0,128,104.2a23,23,0,0,0-44.3,8.7c0,12.7,14.1,36.1,44.3,53.2,30.2-16.7,44.3-40.5,44.3-53.2A23,23,0,0,0,149.3,89.9Z"/><path class="cls-3" d="M128,213.9A85.9,85.9,0,1,1,213.9,128,86,86,0,0,1,128,213.9Zm0-156.8A70.9,70.9,0,1,0,198.9,128,71,71,0,0,0,128,57.1Z"/><rect class="cls-4" x="120.5" y="32.9" width="14.9" height="41.5"/><rect class="cls-4" x="120.5" y="181.7" width="14.9" height="41.5"/><rect class="cls-4" x="181.7" y="120.5" width="41.5" height="14.9"/><rect class="cls-4" x="32.9" y="120.5" width="41.5" height="14.9"/></svg>