<svg id="Layer_1" data-name="Layer 1" xmlns="http://www.w3.org/2000/svg" viewBox="0 0 256 256"><defs><style>.cls-1{fill:#39b39b;}.cls-2{fill:#e65336;}.cls-3{fill:#fad198;}.cls-4{fill:#e5b375;}.cls-5{fill:#cb9962;}.cls-6{fill:#fbe0c8;}.cls-7{fill:#fff;}</style></defs><title>sharing-is-caring</title><rect class="cls-1" width="256" height="256"/><path class="cls-2" d="M184.7,59.9A35.41,35.41,0,0,0,152,81.8,35.39,35.39,0,0,0,83.9,95.3c0,19.6,21.6,55.6,68.1,81.9,46.5-25.7,68.1-62.3,68.1-81.9A35.4,35.4,0,0,0,184.7,59.9Z"/><path class="cls-3" d="M220.1,125.2a2.89,2.89,0,0,0-1.2-1.5,9.26,9.26,0,0,0-10.1-.3,19.23,19.23,0,0,1-2.6,1.7,14.1,14.1,0,0,1-4.1.7c-4.9.7-9,4.3-11.6,8.6s-3.8,9.2-5,14c-3.3,2.9-6.5,5.8-9.8,8.7a39.8,39.8,0,0,0-22.5-9.2c-7.9-.6-16.1,1.1-23.6-1.5-11.3-4-17.1-16.4-26.7-23.7-10.2-7.7-24-9-36.7-7.7s-25.2,4.8-38,5.5c-9,.5-18.1-0.4-27,1.1C1.1,123.7,1,125.9,1,128c0,16.2-.51,31.59,0,47.09,8.4-.8,25.3-5.19,33.7-6.39,13.2-1.9,26.7,1.2,38.9,6.7s23.2,13.1,34.1,20.8c5.7,4,11.8,8.2,18.7,8.4,8.1,0.3,15.2-4.8,22.6-8,6.9-3,14.3-4.4,21.4-6.7a41.82,41.82,0,0,0,10.3-4.7,55,55,0,0,0,9.1-8.3,156.71,156.71,0,0,0,15-17.6c6.7-9.8,10.9-21.1,15.1-32.2A6.48,6.48,0,0,0,220.1,125.2Z"/><path class="cls-4" d="M190.4,136.4c-3.8,7.4-5.8,16.3-12.5,21.3a3,3,0,0,0-1.6,1.9,4.48,4.48,0,0,0,.4,2c1.2,3.4-.2,7.4-2.8,9.9s-6.3,3.6-10,3.9a44,44,0,0,1-10.8-1.1c-7-1.3-14-2.8-20.9-4.5-1.6-.4-3.3-0.8-4.9-1.3-1.8-.6-3.5-1.3-5.2-1.9a32.24,32.24,0,0,0-16.6-.9,10.7,10.7,0,0,0,3.6,1.6,232.52,232.52,0,0,0,46.8,9.4c4.1,0.4,8.2.7,12.2-.2s7.9-3.2,9.7-6.9,1.6-8.1,3.6-11.6a10.24,10.24,0,0,1,8.9-5.1,8.23,8.23,0,0,1-1.1-7,28.66,28.66,0,0,1,3-6.7,93.53,93.53,0,0,1,6.3-10C194.8,129.7,192.2,133.1,190.4,136.4Z"/><path class="cls-5" d="M169.2,174.7a22.2,22.2,0,0,1-16.6,1,6.34,6.34,0,0,0-3-.5c-2.1.4-3,3-3.4,5.1-1.1-1.1-.3-3-0.7-4.5-0.5-2.1-3-2.9-5.1-3s-4.3.4-6.3-.4a1.56,1.56,0,0,1-1.9,1.7,3.39,3.39,0,0,1-1.7-2c-0.7-1.4-2.3-2.9-3.7-2.2a3.67,3.67,0,0,0-1.4,2,70.09,70.09,0,0,0-2.7,8.9c-0.9-.7-0.9-2-0.8-3.1,0.2-2.6.3-5.2,0.5-7.7a3.21,3.21,0,0,0-.2-1.7,2.87,2.87,0,0,0-1.9-1.1,41.48,41.48,0,0,0-10.5-1.4c3.4-1.8,7.6-.4,11.2.8a188.52,188.52,0,0,0,36.2,8.5c5.2,0.7,10.6,1.1,15.3-1.1"/><path class="cls-6" d="M171.2,158.1a65.07,65.07,0,0,0-7.7-.4,2.83,2.83,0,0,0-1.8.4c-1.3.7-1.3,2.5-1.3,3.9a25.09,25.09,0,0,1-.8,6.7,3.59,3.59,0,0,0,.1,2.7c0.5,0.8,1.6.9,2.5,1,1.4,0.1,2.7.3,4.1,0.4a17.83,17.83,0,0,0,4,0,24,24,0,0,0,1.3-5.9A42.94,42.94,0,0,0,171.2,158.1Z"/><path class="cls-7" d="M174.2,158.9a4,4,0,0,0-2.1-.7c-0.3,0-.5-0.1-0.8-0.1a36.24,36.24,0,0,1,.3,8.7,24,24,0,0,1-1.3,5.9,4.49,4.49,0,0,0,1.8-.7,6,6,0,0,0,2.4-3.4,19.34,19.34,0,0,0,.6-4.2c0-.6.1-1.3,0.1-1.9C175.2,161.3,175.2,159.8,174.2,158.9Z"/><path class="cls-4" d="M209.3,123.6c-1.6.9-3.2,1.9-4.9,2.8,0.9,0.3,1.9.6,2.8,0.9a5.31,5.31,0,0,1,1.7.8c1.1,1.1.8,2.9,0.3,4.3-1.7,5.9-3.4,11.8-5.2,17.6a27.18,27.18,0,0,1-1.5,4.3,27.17,27.17,0,0,1-2.7,4.2,212.76,212.76,0,0,0-13,20.8c7.3-8.6,14.8-17.4,18.5-28.1,0.8-2.3,1.4-4.7,2.3-7.1,1.5-4.3,3.7-8.4,3.7-13a5.34,5.34,0,0,0-.5-2.5c-0.3-.7-0.8-1.3-1.1-2a3.57,3.57,0,0,1,2.8-4.6A23.87,23.87,0,0,0,209.3,123.6Z"/><path class="cls-6" d="M205.8,132l-0.3.6c-0.9,2.2-.8,4.7-0.7,7.1a1.25,1.25,0,0,0,.5,1.2,0.94,0.94,0,0,0,1.1-.2,3.88,3.88,0,0,0,.6-1.1c0.7-2.2,1.4-4.4,1.9-6.6a7.61,7.61,0,0,0-2.1-.8A3.55,3.55,0,0,1,205.8,132Z"/><path class="cls-7" d="M207,130.8a2.34,2.34,0,0,0-1.2,1.2c0.3,0.1.7,0.1,1,.2a9,9,0,0,1,2.1.8,14.62,14.62,0,0,0,.5-2A4.92,4.92,0,0,0,207,130.8Z"/><path class="cls-6" d="M217.4,127.6c-0.4-.1-0.8-0.2-1.1-0.3a9.89,9.89,0,0,0-1.1,3.3l-0.3,1.8a3.16,3.16,0,0,0,.3,2.7,0.84,0.84,0,0,0,1,.3,1.24,1.24,0,0,0,.6-0.8l2.4-6.3C218.6,128.1,218,127.8,217.4,127.6Z"/><path class="cls-7" d="M219.2,128.4a20.94,20.94,0,0,0,.8-2.3,2.73,2.73,0,0,0-3.5.9c-0.1.1-.2,0.3-0.3,0.4,0.4,0.1.8,0.2,1.1,0.3A6.19,6.19,0,0,1,219.2,128.4Z"/></svg>