<?xml version="1.0" encoding="UTF-8"?>
<svg id="Layer_1" data-name="Layer 1" xmlns="http://www.w3.org/2000/svg" viewBox="0 0 519.32 221.03">
  <defs>
    <style>
      .cls-1 {
        fill: #fcfcfc;
      }

      .cls-1, .cls-2 {
        stroke: #000;
        stroke-miterlimit: 10;
        stroke-width: .75px;
      }

      .cls-3 {
        fill: #fe2121;
      }

      .cls-2 {
        fill: #020202;
      }

      .cls-4 {
        fill: #fff;
      }
    </style>
  </defs>
  <path class="cls-3" d="M268.73,84.57l-134.03,136.46L0,84.55,43.17,0l90.24,33.97.84.14c26.2-9.43,52.18-19.55,78.3-29.25,4.3-1.59,8.66-3.18,13-4.6l43.18,84.31Z"/>
  <g>
    <g>
      <path class="cls-2" d="M322.86,132.16h-12.49c-.63-.94-.41-2.19-.88-3.41-1.8-4.62-8.99-5.53-12.9-3.41-4.36,2.36-3.57,6.45.49,8.58,8.19,4.29,22.77,2.51,26.4,13.87,3.2,10.01-2.2,18.5-11.89,21.28-15.01,4.31-30.82-1.68-32.22-18.66h12.61c1.13,7.78,7.62,12.14,15.13,8.82,2.58-1.14,5.83-4.7,3.93-7.61-2.08-3.2-10.52-4.54-14.17-5.7-7.33-2.35-14.84-5.75-15.6-14.48-1.45-16.53,19.42-20.04,31.37-15.27,6.87,2.75,10.25,8.67,10.2,15.98h.02Z"/>
      <path class="cls-2" d="M385.69,112.56v20.68c4.25-4.74,10.82-6.7,16.91-4.42,5.32,1.98,7.06,7.98,7.52,13.16v27.52h-13.96v-26.18c0-.12-.38-1.42-.48-1.66-1.45-3.96-6.09-3.3-8.66-.76-.19.19-1.33,1.51-1.33,1.62v26.98h-13.96v-56.92h13.96Z"/>
      <path class="cls-2" d="M477.46,127.94c17.12-1.21,26.76,11.67,22.64,28.01-4.85,19.26-35.92,19.46-41.19.31-3.93-14.29,3.23-27.24,18.55-28.32h0ZM477.99,138.95c-6.83.81-8.11,7-7.44,12.92,1.06,9.16,14.42,10.26,17.28,2.04,2.64-7.55-.76-16.03-9.86-14.95h.01Z"/>
      <path class="cls-2" d="M432.36,127.94c16.8-1.02,26.37,11.44,22.53,27.64-5.03,21.19-40.21,19.58-42.06-3.14-1.12-13.65,5.28-23.62,19.54-24.48h0ZM432.62,138.95c-10.27,1.22-10.01,18.98-.55,20.26,5.92.8,10.39-1.66,11.04-7.89.77-7.35-2.27-13.36-10.5-12.38h0Z"/>
      <path class="cls-2" d="M368.78,138.86l-11.11,4.55c-3.65-7-15.19-5.9-17.48,1.63-1.62,5.28-.38,12.65,5.76,14.11,3.36.8,7.3.23,9.67-2.43.44-.49.85-1.71,1.47-1.73l10.89,4.29c-2.23,6.77-9.73,10.5-16.51,11.01-10.98.81-21.07-3.58-23.59-15.08-1.99-9.09.26-19.56,8.77-24.44,9.66-5.53,27.6-3.34,32.13,8.1h0Z"/>
      <rect class="cls-2" x="504.36" y="112.56" width="13.96" height="56.92"/>
      <path class="cls-1" d="M478.28,139.58c8.58-1.02,11.78,6.98,9.3,14.11-2.71,7.76-15.3,6.72-16.3-1.92-.65-5.58.56-11.42,7.01-12.18h-.01Z"/>
      <path class="cls-1" d="M432.48,139.58c7.76-.92,10.63,4.74,9.9,11.68-.61,5.86-4.83,8.19-10.42,7.44-8.92-1.21-9.18-17.96.52-19.11h0Z"/>
    </g>
    <g>
      <path d="M280.36,52.26h20.04c9.9,0,20.92,4.63,20.92,15.09,0,5.03-2.4,8.62-6.15,11.18,4.87,2.88,7.35,7.19,7.35,11.58,0,7.67-7.19,15.49-22.12,15.49h-20.04v-53.35h0ZM294.34,62.16v12.78h4.39c5.75,0,8.7-3.27,8.7-6.39s-2.88-6.39-8.7-6.39h-4.39ZM298.73,95.71c6.71,0,10.14-3.43,9.9-6.79-.24-3.19-3.51-6.31-9.9-6.31h-4.39v13.1h4.39Z"/>
      <path d="M367.41,85.64c0-11.98-5.75-20.77-20.2-20.77s-21.81,8.79-21.81,20.77,7.27,20.76,21.81,20.76c9.98,0,16.61-4.06,19.72-10.69l-11.57-4.63c-1.28,2.79-3.76,4.54-8.15,4.54-5.43,0-7.99-2.71-8.87-6.79h29.07v-3.19ZM354.4,80.38l-15.02-.04c-1.17-.38.69-3.31,1.19-3.87,2.88-3.14,9.66-3.16,12.78-.28.78.72,2.99,3.97,1.05,4.19Z"/>
      <path d="M385.06,52.26v21.16l13.98-21.16h13.98l-15.17,21.08,16.13,32.26h-13.98l-10.46-20.84-4.47,6.23v14.61h-13.98v-53.35h13.98-.01Z"/>
      <path d="M416.55,105.61v-39.22c2.33,2.36,4.66,4.71,6.99,7.07,2.33-2.36,4.66-4.71,6.99-7.07,0,13.31.21,25.91.21,39.22h-14.19Z"/>
      <path d="M435.85,105.61v-39.93h9.27l4.71,4.71c2.95-3.75,6.39-5.51,11.82-5.51,9.58,0,12.46,7.59,12.46,15.49v25.24h-13.98v-24.2c0-4.47-2.08-5.75-4.55-5.75-2.08,0-3.99,1.28-5.75,3.75v26.19h-13.98,0Z"/>
      <path d="M511.37,105.61l-5.95-5.59c-3.67,5.59-9.1,6.39-12.22,6.39-6.71,0-14.61-6.23-14.61-20.76s8.39-20.76,15.97-20.76c2.95,0,7.59.8,10.78,5.27v-19.65h13.98v55.1h-7.95ZM498.94,75.74c-8.07,0-8.7,19.81-.72,19.81,3.19,0,6.39-3.19,6.39-9.9s-2.48-9.9-5.67-9.9h0Z"/>
      <polygon class="cls-3" points="423.55 54.78 430.31 52.26 433.54 58.51 423.61 68.59 413.64 58.5 416.84 52.26 423.55 54.78"/>
    </g>
  </g>
  <g>
    <g>
      <path class="cls-4" d="M87.62,110.11h-7.65c-.39-.58-.25-1.35-.55-2.09-1.11-2.83-5.52-3.38-7.92-2.09-2.67,1.45-2.18,3.95.31,5.26,5.03,2.63,13.95,1.54,16.18,8.5,1.95,6.13-1.35,11.34-7.29,13.05-9.2,2.64-18.9-1.03-19.74-11.44h7.73c.7,4.78,4.67,7.44,9.28,5.4,1.59-.7,3.58-2.88,2.41-4.67-1.28-1.95-6.44-2.78-8.68-3.5-4.49-1.44-9.09-3.52-9.56-8.87-.89-10.13,11.9-12.28,19.23-9.36,4.2,1.68,6.28,5.31,6.26,9.79h0Z"/>
      <path class="cls-4" d="M126.12,98.1v12.67c2.6-2.9,6.64-4.1,10.36-2.71,3.26,1.21,4.33,4.89,4.6,8.07v16.86h-8.56v-16.04c0-.07-.24-.87-.3-1.02-.89-2.42-3.74-2.02-5.31-.47-.11.11-.81.93-.81.99v16.54h-8.56v-34.89h8.57Z"/>
      <path class="cls-4" d="M182.38,107.53c10.49-.74,16.41,7.15,13.88,17.17-2.97,11.8-22.01,11.93-25.25.19-2.41-8.75,1.99-16.69,11.37-17.35h0ZM182.7,114.27c-4.19.5-4.97,4.3-4.56,7.92.65,5.61,8.83,6.28,10.59,1.25,1.61-4.63-.46-9.82-6.04-9.16h.01Z"/>
      <path class="cls-4" d="M154.73,107.53c10.29-.63,16.17,7.01,13.81,16.93-3.08,12.99-24.64,12.01-25.78-1.93-.69-8.36,3.23-14.47,11.97-15h0ZM154.89,114.27c-6.29.75-6.13,11.63-.33,12.42,3.63.49,6.36-1.02,6.76-4.83.47-4.51-1.39-8.19-6.43-7.59Z"/>
      <path class="cls-4" d="M115.76,114.22l-6.81,2.79c-2.24-4.3-9.3-3.61-10.72.99-.98,3.23-.24,7.76,3.53,8.65,2.06.49,4.47.15,5.93-1.5.27-.31.51-1.05.9-1.06l6.67,2.63c-1.37,4.15-5.96,6.43-10.12,6.74-6.73.5-12.91-2.19-14.45-9.24-1.22-5.58.16-11.98,5.38-14.98,5.92-3.39,16.91-2.04,19.7,4.96v.02Z"/>
      <rect class="cls-4" x="198.86" y="98.1" width="8.56" height="34.89"/>
    </g>
    <g>
      <path class="cls-4" d="M61.32,61.25h12.29c6.07,0,12.82,2.84,12.82,9.25,0,3.08-1.47,5.29-3.77,6.85,2.99,1.76,4.5,4.41,4.5,7.1,0,4.7-4.41,9.5-13.56,9.5h-12.29v-32.7h0ZM69.88,67.31v7.83h2.69c3.52,0,5.34-2.01,5.34-3.92s-1.76-3.92-5.34-3.92h-2.69ZM72.57,87.87c4.11,0,6.22-2.1,6.07-4.16-.15-1.96-2.15-3.87-6.07-3.87h-2.69v8.03h2.69Z"/>
      <path class="cls-4" d="M114.67,81.71c0-7.34-3.52-12.73-12.38-12.73s-13.37,5.39-13.37,12.73,4.45,12.72,13.37,12.72c6.12,0,10.18-2.49,12.09-6.55l-7.09-2.84c-.79,1.71-2.3,2.78-4.99,2.78-3.33,0-4.9-1.66-5.44-4.16h17.82v-1.96h-.01ZM106.69,78.48l-9.21-.02c-.71-.23.42-2.03.73-2.37,1.76-1.93,5.92-1.94,7.83-.17.48.44,1.83,2.43.64,2.57h0Z"/>
      <path class="cls-4" d="M125.49,61.25v12.97l8.57-12.97h8.57l-9.3,12.92,9.89,19.77h-8.57l-6.41-12.78-2.74,3.82v8.96h-8.57v-32.7h8.57,0Z"/>
      <path class="cls-4" d="M144.79,93.94v-24.04c1.43,1.44,2.86,2.89,4.28,4.33,1.43-1.44,2.86-2.89,4.28-4.33,0,8.16.13,15.88.13,24.04h-8.69Z"/>
      <path class="cls-4" d="M156.62,93.94v-24.47h5.68l2.89,2.89c1.81-2.3,3.92-3.38,7.24-3.38,5.87,0,7.64,4.65,7.64,9.5v15.47h-8.57v-14.83c0-2.74-1.27-3.52-2.79-3.52-1.27,0-2.45.78-3.52,2.3v16.05h-8.57,0Z"/>
      <path class="cls-4" d="M202.9,93.94l-3.65-3.43c-2.25,3.43-5.58,3.92-7.49,3.92-4.11,0-8.96-3.82-8.96-12.73s5.14-12.73,9.79-12.73c1.81,0,4.65.49,6.61,3.23v-12.04h8.57v33.77h-4.87,0ZM195.28,75.64c-4.94,0-5.34,12.14-.44,12.14,1.96,0,3.92-1.96,3.92-6.07s-1.52-6.07-3.48-6.07Z"/>
      <polygon class="cls-4" points="149.07 62.79 153.22 61.25 155.2 65.07 149.11 71.25 143 65.07 144.96 61.25 149.07 62.79"/>
    </g>
  </g>
</svg>