<?xml version="1.0" encoding="UTF-8" standalone="no"?>
<!DOCTYPE svg PUBLIC "-//W3C//DTD SVG 1.1//EN" "http://www.w3.org/Graphics/SVG/1.1/DTD/svg11.dtd">
<svg width="100%" height="100%" viewBox="0 0 269 222" version="1.1" xmlns="http://www.w3.org/2000/svg" xmlns:xlink="http://www.w3.org/1999/xlink" xml:space="preserve" xmlns:serif="http://www.serif.com/" style="fill-rule:evenodd;clip-rule:evenodd;stroke-linejoin:round;stroke-miterlimit:2;">
    <path d="M268.73,84.57L134.7,221.03L0,84.55L43.17,0L133.41,33.97L134.25,34.11C160.45,24.68 186.43,14.56 212.55,4.86C216.85,3.27 221.21,1.68 225.55,0.26L268.73,84.57Z" style="fill:rgb(254,33,33);fill-rule:nonzero;"/>
    <g>
        <g>
            <path d="M87.62,110.11L79.97,110.11C79.58,109.53 79.72,108.76 79.42,108.02C78.31,105.19 73.9,104.64 71.5,105.93C68.83,107.38 69.32,109.88 71.81,111.19C76.84,113.82 85.76,112.73 87.99,119.69C89.94,125.82 86.64,131.03 80.7,132.74C71.5,135.38 61.8,131.71 60.96,121.3L68.69,121.3C69.39,126.08 73.36,128.74 77.97,126.7C79.56,126 81.55,123.82 80.38,122.03C79.1,120.08 73.94,119.25 71.7,118.53C67.21,117.09 62.61,115.01 62.14,109.66C61.25,99.53 74.04,97.38 81.37,100.3C85.57,101.98 87.65,105.61 87.63,110.09L87.62,110.11Z" style="fill:white;fill-rule:nonzero;"/>
            <path d="M126.12,98.1L126.12,110.77C128.72,107.87 132.76,106.67 136.48,108.06C139.74,109.27 140.81,112.95 141.08,116.13L141.08,132.99L132.52,132.99L132.52,116.95C132.52,116.88 132.28,116.08 132.22,115.93C131.33,113.51 128.48,113.91 126.91,115.46C126.8,115.57 126.1,116.39 126.1,116.45L126.1,132.99L117.54,132.99L117.54,98.1L126.12,98.1Z" style="fill:white;fill-rule:nonzero;"/>
            <path d="M182.38,107.53C192.87,106.79 198.79,114.68 196.26,124.7C193.29,136.5 174.25,136.63 171.01,124.89C168.6,116.14 173,108.2 182.38,107.54L182.38,107.53ZM182.7,114.27C178.51,114.77 177.73,118.57 178.14,122.19C178.79,127.8 186.97,128.47 188.73,123.44C190.34,118.81 188.27,113.62 182.69,114.28L182.7,114.28L182.7,114.27Z" style="fill:white;fill-rule:nonzero;"/>
            <path d="M154.73,107.53C165.02,106.9 170.9,114.54 168.54,124.46C165.46,137.45 143.9,136.47 142.76,122.53C142.07,114.17 145.99,108.06 154.73,107.53ZM154.89,114.27C148.6,115.02 148.76,125.9 154.56,126.69C158.19,127.18 160.92,125.67 161.32,121.86C161.79,117.35 159.93,113.67 154.89,114.27Z" style="fill:white;fill-rule:nonzero;"/>
            <path d="M115.76,114.22L108.95,117.01C106.71,112.71 99.65,113.4 98.23,118C97.25,121.23 97.99,125.76 101.76,126.65C103.82,127.14 106.23,126.8 107.69,125.15C107.96,124.84 108.2,124.1 108.59,124.09L115.26,126.72C113.89,130.87 109.3,133.15 105.14,133.46C98.41,133.96 92.23,131.27 90.69,124.22C89.47,118.64 90.85,112.24 96.07,109.24C101.99,105.85 112.98,107.2 115.77,114.2L115.77,114.22L115.76,114.22Z" style="fill:white;fill-rule:nonzero;"/>
            <rect x="198.86" y="98.1" width="8.56" height="34.89" style="fill:white;"/>
        </g>
        <g>
            <path d="M61.31,61.25L73.61,61.25C79.68,61.25 86.43,64.09 86.43,70.5C86.43,73.58 84.96,75.79 82.66,77.35C85.65,79.11 87.16,81.76 87.16,84.45C87.16,89.15 82.75,93.95 73.6,93.95L61.31,93.95L61.31,61.25ZM69.88,67.3L69.88,75.14L72.57,75.14C76.09,75.14 77.91,73.13 77.91,71.22C77.91,69.31 76.15,67.3 72.57,67.3L69.88,67.3ZM72.57,87.87C76.68,87.87 78.79,85.77 78.64,83.71C78.49,81.75 76.49,79.84 72.57,79.84L69.88,79.84L69.88,87.87L72.57,87.87Z" style="fill:white;fill-rule:nonzero;"/>
            <path d="M114.67,81.71C114.67,74.37 111.15,68.98 102.29,68.98C93.43,68.98 88.92,74.37 88.92,81.71C88.92,89.05 93.37,94.43 102.29,94.43C108.41,94.43 112.47,91.94 114.38,87.88L107.29,85.04C106.5,86.75 104.99,87.82 102.3,87.82C98.97,87.82 97.4,86.16 96.86,83.66L114.68,83.66L114.68,81.7L114.67,81.7L114.67,81.71ZM106.69,78.48L97.48,78.46C96.77,78.23 97.9,76.43 98.21,76.09C99.97,74.16 104.13,74.15 106.04,75.92C106.52,76.36 107.87,78.35 106.68,78.49L106.69,78.48Z" style="fill:white;fill-rule:nonzero;"/>
            <path d="M125.49,61.25L125.49,74.22L134.06,61.25L142.63,61.25L133.33,74.17L143.22,93.94L134.65,93.94L128.24,81.16L125.5,84.98L125.5,93.94L116.93,93.94L116.93,61.24L125.5,61.24L125.49,61.25Z" style="fill:white;fill-rule:nonzero;"/>
            <path d="M144.79,93.94L144.79,69.9C146.22,71.34 147.65,72.79 149.07,74.23C150.5,72.79 151.93,71.34 153.35,69.9C153.35,78.06 153.48,85.78 153.48,93.94L144.79,93.94Z" style="fill:white;fill-rule:nonzero;"/>
            <path d="M156.62,93.95L156.62,69.47L162.3,69.47L165.19,72.36C167,70.06 169.11,68.98 172.43,68.98C178.3,68.98 180.07,73.63 180.07,78.48L180.07,93.95L171.5,93.95L171.5,79.12C171.5,76.38 170.23,75.6 168.71,75.6C167.44,75.6 166.26,76.38 165.19,77.9L165.19,93.95L156.62,93.95Z" style="fill:white;fill-rule:nonzero;"/>
            <path d="M202.9,93.94L199.25,90.51C197,93.94 193.67,94.43 191.76,94.43C187.65,94.43 182.8,90.61 182.8,81.7C182.8,72.79 187.94,68.97 192.59,68.97C194.4,68.97 197.24,69.46 199.2,72.2L199.2,60.16L207.77,60.16L207.77,93.93L202.9,93.93L202.9,93.94ZM195.28,75.64C190.34,75.64 189.94,87.78 194.84,87.78C196.8,87.78 198.76,85.82 198.76,81.71C198.76,77.6 197.24,75.64 195.28,75.64Z" style="fill:white;fill-rule:nonzero;"/>
            <path d="M149.07,62.79L153.22,61.25L155.2,65.07L149.11,71.25L143,65.07L144.96,61.25L149.07,62.79Z" style="fill:white;fill-rule:nonzero;"/>
        </g>
    </g>
</svg>
