<?xml version="1.0" encoding="UTF-8"?>
<svg id="Layer_1" xmlns="http://www.w3.org/2000/svg" version="1.1" viewBox="0 0 556.8 240">
  <!-- Generator: Adobe Illustrator 30.0.0, SVG Export Plug-In . SVG Version: 2.1.1 Build 123)  -->
  <defs>
    <style>
      .st0 {
        fill: #fcfcfc;
      }

      .st0, .st1 {
        stroke: #000;
        stroke-miterlimit: 10;
        stroke-width: .75px;
      }

      .st2 {
        fill: #fe2121;
      }

      .st1 {
        fill: #020202;
      }

      .st3 {
        display: none;
      }

      .st3, .st4 {
        fill: #fff;
      }
    </style>
  </defs>
  <path class="st2" d="M278.12,87.65l-134.03,136.46L9.39,87.63,52.56,3.08l90.24,33.97.84.14c26.2-9.43,52.18-19.55,78.3-29.25,4.3-1.59,8.66-3.18,13-4.6l43.18,84.31Z"/>
  <g>
    <g>
      <path class="st1" d="M329.29,141.25h-10.73c-.54-.81-.35-1.88-.76-2.93-1.55-3.97-7.73-4.75-11.09-2.93-3.75,2.03-3.07,5.54.42,7.37,7.04,3.69,19.57,2.16,22.69,11.92,2.75,8.6-1.89,15.9-10.22,18.29-12.9,3.7-26.49-1.44-27.69-16.04h10.84c.97,6.69,6.55,10.43,13,7.58,2.22-.98,5.01-4.04,3.38-6.54-1.79-2.75-9.04-3.9-12.18-4.9-6.3-2.02-12.75-4.94-13.41-12.44-1.25-14.21,16.69-17.22,26.96-13.12,5.9,2.36,8.81,7.45,8.77,13.73Z"/>
      <path class="st1" d="M383.29,124.4v17.77c3.65-4.07,9.3-5.76,14.53-3.8,4.57,1.7,6.07,6.86,6.46,11.31v23.65s-12,0-12,0v-22.5c0-.1-.33-1.22-.41-1.43-1.25-3.4-5.23-2.84-7.44-.65-.16.16-1.14,1.3-1.14,1.39v23.19h-12v-48.92h12Z"/>
      <path class="st1" d="M462.15,137.62c14.71-1.04,23,10.03,19.46,24.07-4.17,16.55-30.87,16.72-35.4.27-3.38-12.28,2.78-23.41,15.94-24.34ZM462.61,147.08c-5.87.7-6.97,6.02-6.39,11.1.91,7.87,12.39,8.82,14.85,1.75,2.27-6.49-.65-13.78-8.47-12.85Z"/>
      <path class="st1" d="M423.39,137.62c14.44-.88,22.66,9.83,19.36,23.75-4.32,18.21-34.56,16.83-36.15-2.7-.96-11.73,4.54-20.3,16.79-21.04ZM423.62,147.08c-8.83,1.05-8.6,16.31-.47,17.41,5.09.69,8.93-1.43,9.49-6.78.66-6.32-1.95-11.48-9.02-10.64Z"/>
      <path class="st1" d="M520.23,149.78c-.56-.44-.25-1.19-.45-1.85-.59-1.89-2.31-2.79-4.19-2.96-4.46-.4-8,3.05-2.57,5.11,5.77,2.19,15.19,1.74,17.32,9.21,2.32,8.11-3.42,13.22-10.87,14.42-9.89,1.6-19.66-2.47-20.09-13.51.28-.45,8.37-.35,9.51-.05,1.22,4.39,2.99,6.58,7.88,6.02,3.07-.35,6.2-3.57,2.04-5.51-5.94-2.77-16.18-2.27-18.02-10.59-3.34-15.13,24.8-17.23,28.49-4.72.18.63,1.03,4.43.18,4.43h-9.23Z"/>
      <path class="st1" d="M368.75,147.01l-9.55,3.91c-3.14-6.02-13.05-5.07-15.02,1.4-1.39,4.54-.33,10.87,4.95,12.13,2.89.69,6.27.2,8.31-2.09.38-.42.73-1.47,1.26-1.49l9.36,3.69c-1.92,5.82-8.36,9.02-14.19,9.46-9.44.7-18.11-3.08-20.27-12.96-1.71-7.81.22-16.81,7.54-21,8.3-4.75,23.72-2.87,27.61,6.96Z"/>
      <rect class="st1" x="485.27" y="124.4" width="12" height="48.92"/>
      <path class="st0" d="M462.61,147.08c7.82-.93,10.73,6.36,8.47,12.85-2.47,7.07-13.94,6.12-14.85-1.75-.59-5.08.51-10.4,6.39-11.1Z"/>
      <path class="st0" d="M423.62,147.08c7.07-.84,9.68,4.32,9.02,10.64-.56,5.34-4.4,7.46-9.49,6.78-8.13-1.1-8.36-16.36.47-17.41Z"/>
    </g>
    <g>
      <path d="M291.91,65.03h20.04c9.9,0,20.92,4.63,20.92,15.09,0,5.03-2.4,8.62-6.15,11.18,4.87,2.88,7.35,7.19,7.35,11.58,0,7.67-7.19,15.49-22.12,15.49h-20.04v-53.35ZM305.89,74.93v12.78h4.39c5.75,0,8.7-3.27,8.7-6.39s-2.88-6.39-8.7-6.39h-4.39ZM310.28,108.48c6.71,0,10.14-3.43,9.9-6.79-.24-3.19-3.51-6.31-9.9-6.31h-4.39v13.1h4.39Z"/>
      <path d="M378.96,98.41c0-11.98-5.75-20.77-20.2-20.77s-21.81,8.79-21.81,20.77,7.27,20.76,21.81,20.76c9.98,0,16.61-4.06,19.72-10.69l-11.57-4.63c-1.28,2.79-3.76,4.54-8.15,4.54-5.43,0-7.99-2.71-8.87-6.79h29.07v-3.19ZM365.95,93.15l-15.02-.04c-1.17-.38.69-3.31,1.19-3.87,2.88-3.14,9.66-3.16,12.78-.28.78.72,2.99,3.97,1.05,4.19Z"/>
      <path d="M396.61,65.03v21.16l13.98-21.16h13.98l-15.17,21.08,16.13,32.26h-13.98l-10.46-20.84-4.47,6.23v14.61h-13.98v-53.35h13.98Z"/>
      <path d="M428.1,118.38v-39.22c2.33,2.36,4.66,4.71,6.99,7.07,2.33-2.36,4.66-4.71,6.99-7.07,0,13.31.21,25.91.21,39.22h-14.18Z"/>
      <path d="M447.4,118.38v-39.93h9.27l4.71,4.71c2.95-3.75,6.39-5.51,11.82-5.51,9.58,0,12.46,7.59,12.46,15.49v25.24h-13.98v-24.2c0-4.47-2.08-5.75-4.55-5.75-2.08,0-3.99,1.28-5.75,3.75v26.19h-13.98Z"/>
      <path d="M522.92,118.38l-5.95-5.59c-3.67,5.59-9.1,6.39-12.22,6.39-6.71,0-14.61-6.23-14.61-20.76s8.39-20.76,15.97-20.76c2.95,0,7.59.8,10.78,5.27v-19.65h13.98v55.1h-7.94ZM510.49,88.51c-8.07,0-8.7,19.81-.72,19.81,3.19,0,6.39-3.19,6.39-9.9s-2.48-9.9-5.67-9.9Z"/>
      <polygon class="st2" points="435.1 67.55 441.86 65.03 445.09 71.28 435.16 81.36 425.19 71.27 428.39 65.03 435.1 67.55"/>
    </g>
  </g>
  <g>
    <g>
      <path class="st4" d="M93.51,117.33h-6.7c-.34-.51-.22-1.18-.48-1.83-.97-2.48-4.83-2.96-6.93-1.83-2.34,1.27-1.91,3.46.27,4.6,4.4,2.3,12.21,1.35,14.16,7.44,1.71,5.37-1.18,9.93-6.38,11.42-8.05,2.31-16.54-.9-17.28-10.01h6.77c.61,4.18,4.09,6.51,8.12,4.73,1.39-.61,3.13-2.52,2.11-4.09-1.12-1.71-5.64-2.43-7.6-3.06-3.93-1.26-7.96-3.08-8.37-7.76-.78-8.87,10.42-10.75,16.83-8.19,3.68,1.47,5.5,4.65,5.48,8.57Z"/>
      <path class="st4" d="M127.21,106.82v11.09c2.28-2.54,5.81-3.59,9.07-2.37,2.85,1.06,3.79,4.28,4.03,7.06v14.76s-7.49,0-7.49,0v-14.04c0-.06-.21-.76-.26-.89-.78-2.12-3.27-1.77-4.65-.41-.1.1-.71.81-.71.87v14.48h-7.49v-30.54h7.49Z"/>
      <path class="st4" d="M176.45,115.07c9.18-.65,14.36,6.26,12.15,15.03-2.6,10.33-19.27,10.44-22.1.17-2.11-7.66,1.74-14.61,9.95-15.19ZM176.73,120.97c-3.67.44-4.35,3.76-3.99,6.93.57,4.91,7.73,5.5,9.27,1.09,1.41-4.05-.4-8.6-5.29-8.02Z"/>
      <path class="st4" d="M152.25,115.07c9.01-.55,14.15,6.14,12.09,14.82-2.7,11.37-21.57,10.51-22.57-1.69-.6-7.32,2.83-12.67,10.48-13.13ZM152.39,120.97c-5.51.66-5.37,10.18-.29,10.87,3.18.43,5.57-.89,5.92-4.23.41-3.95-1.22-7.17-5.63-6.64Z"/>
      <path class="st4" d="M212.7,122.66c-.35-.27-.15-.74-.28-1.16-.37-1.18-1.44-1.74-2.62-1.85-2.78-.25-4.99,1.9-1.61,3.19,3.6,1.37,9.48,1.08,10.81,5.75,1.45,5.06-2.14,8.25-6.78,9-6.18,1-12.27-1.54-12.54-8.44.18-.28,5.22-.22,5.94-.03.76,2.74,1.87,4.11,4.92,3.76,1.92-.22,3.87-2.23,1.28-3.44-3.71-1.73-10.1-1.42-11.25-6.61-2.09-9.44,15.48-10.76,17.78-2.95.12.39.65,2.77.11,2.77h-5.76Z"/>
      <path class="st4" d="M118.14,120.93l-5.96,2.44c-1.96-3.76-8.14-3.16-9.38.87-.86,2.83-.21,6.79,3.09,7.57,1.8.43,3.91.13,5.19-1.31.24-.27.45-.92.79-.93l5.84,2.3c-1.2,3.63-5.22,5.63-8.86,5.9-5.89.44-11.3-1.92-12.65-8.09-1.07-4.88.14-10.49,4.71-13.11,5.18-2.97,14.8-1.79,17.24,4.34Z"/>
      <rect class="st4" x="190.88" y="106.82" width="7.49" height="30.54"/>
      <path class="st3" d="M176.73,120.97c4.88-.58,6.7,3.97,5.29,8.02-1.54,4.41-8.7,3.82-9.27-1.09-.37-3.17.32-6.5,3.99-6.93Z"/>
      <path class="st3" d="M152.39,120.97c4.42-.53,6.04,2.69,5.63,6.64-.35,3.34-2.75,4.66-5.92,4.23-5.08-.69-5.22-10.21.29-10.87Z"/>
    </g>
    <g>
      <path class="st4" d="M70.18,71.25h12.29c6.07,0,12.82,2.84,12.82,9.25,0,3.08-1.47,5.29-3.77,6.85,2.99,1.76,4.5,4.41,4.5,7.1,0,4.7-4.41,9.5-13.56,9.5h-12.29v-32.7ZM78.74,77.31v7.83h2.69c3.52,0,5.34-2.01,5.34-3.92s-1.76-3.92-5.34-3.92h-2.69ZM81.43,97.87c4.11,0,6.22-2.1,6.07-4.16-.15-1.96-2.15-3.87-6.07-3.87h-2.69v8.03h2.69Z"/>
      <path class="st4" d="M123.53,91.71c0-7.34-3.52-12.73-12.38-12.73s-13.37,5.39-13.37,12.73,4.45,12.72,13.37,12.72c6.12,0,10.18-2.49,12.09-6.55l-7.09-2.84c-.79,1.71-2.3,2.78-4.99,2.78-3.33,0-4.9-1.66-5.44-4.16h17.82v-1.96ZM115.55,88.48l-9.21-.02c-.71-.23.42-2.03.73-2.37,1.76-1.93,5.92-1.94,7.83-.17.48.44,1.83,2.43.64,2.57Z"/>
      <path class="st4" d="M134.35,71.25v12.97l8.57-12.97h8.57l-9.3,12.92,9.89,19.77h-8.57l-6.41-12.78-2.74,3.82v8.96h-8.57v-32.7h8.57Z"/>
      <path class="st4" d="M153.65,103.94v-24.04c1.43,1.44,2.86,2.89,4.28,4.33,1.43-1.44,2.86-2.89,4.28-4.33,0,8.16.13,15.88.13,24.04h-8.69Z"/>
      <path class="st4" d="M165.48,103.94v-24.47h5.68l2.89,2.89c1.81-2.3,3.92-3.38,7.24-3.38,5.87,0,7.64,4.65,7.64,9.5v15.47h-8.57v-14.83c0-2.74-1.27-3.52-2.79-3.52-1.27,0-2.45.78-3.52,2.3v16.05h-8.57Z"/>
      <path class="st4" d="M211.76,103.94l-3.65-3.43c-2.25,3.43-5.58,3.92-7.49,3.92-4.11,0-8.96-3.82-8.96-12.73s5.14-12.73,9.79-12.73c1.81,0,4.65.49,6.61,3.23v-12.04h8.57v33.77h-4.87ZM204.14,85.64c-4.94,0-5.34,12.14-.44,12.14,1.96,0,3.92-1.96,3.92-6.07s-1.52-6.07-3.48-6.07Z"/>
      <polygon class="st4" points="157.93 72.79 162.08 71.25 164.06 75.07 157.97 81.25 151.86 75.07 153.82 71.25 157.93 72.79"/>
    </g>
  </g>
</svg>