<svg xmlns="http://www.w3.org/2000/svg" xml:space="preserve" style="fill-rule:evenodd;clip-rule:evenodd;stroke-linejoin:round;stroke-miterlimit:2" viewBox="0 0 269 222"><path d="M278.12 87.65 144.09 224.11 9.39 87.63 52.56 3.08l90.24 33.97.84.14c26.2-9.43 52.18-19.55 78.3-29.25 4.3-1.59 8.66-3.18 13-4.6l43.18 84.31Z" style="fill:#fe2121;fill-rule:nonzero" transform="translate(-9.39 -3.08)"/><path d="M93.51 117.33h-6.7c-.34-.51-.22-1.18-.48-1.83-.97-2.48-4.83-2.96-6.93-1.83-2.34 1.27-1.91 3.46.27 4.6 4.4 2.3 12.21 1.35 14.16 7.44 1.71 5.37-1.18 9.93-6.38 11.42-8.05 2.31-16.54-.9-17.28-10.01h6.77c.61 4.18 4.09 6.51 8.12 4.73 1.39-.61 3.13-2.52 2.11-4.09-1.12-1.71-5.64-2.43-7.6-3.06-3.93-1.26-7.96-3.08-8.37-7.76-.78-8.87 10.42-10.75 16.83-8.19 3.68 1.47 5.5 4.65 5.48 8.57v.01ZM127.21 106.82v11.09c2.28-2.54 5.81-3.59 9.07-2.37 2.85 1.06 3.79 4.28 4.03 7.06v14.76h-7.49v-14.04c0-.06-.21-.76-.26-.89-.78-2.12-3.27-1.77-4.65-.41-.1.1-.71.81-.71.87v14.48h-7.49v-30.54h7.49l.01-.01ZM176.45 115.07c9.18-.65 14.36 6.26 12.15 15.03-2.6 10.33-19.27 10.44-22.1.17-2.11-7.66 1.74-14.61 9.95-15.19v-.01Zm.28 5.9c-3.67.44-4.35 3.76-3.99 6.93.57 4.91 7.73 5.5 9.27 1.09 1.41-4.05-.4-8.6-5.29-8.02h.01ZM152.25 115.07c9.01-.55 14.15 6.14 12.09 14.82-2.7 11.37-21.57 10.51-22.57-1.69-.6-7.32 2.83-12.67 10.48-13.13Zm.14 5.9c-5.51.66-5.37 10.18-.29 10.87 3.18.43 5.57-.89 5.92-4.23.41-3.95-1.22-7.17-5.63-6.64ZM212.7 122.66c-.35-.27-.15-.74-.28-1.16-.37-1.18-1.44-1.74-2.62-1.85-2.78-.25-4.99 1.9-1.61 3.19 3.6 1.37 9.48 1.08 10.81 5.75 1.45 5.06-2.14 8.25-6.78 9-6.18 1-12.27-1.54-12.54-8.44.18-.28 5.22-.22 5.94-.03.76 2.74 1.87 4.11 4.92 3.76 1.92-.22 3.87-2.23 1.28-3.44-3.71-1.73-10.1-1.42-11.25-6.61-2.09-9.44 15.48-10.76 17.78-2.95.12.39.65 2.77.11 2.77h-5.76v.01ZM118.14 120.93l-5.96 2.44c-1.96-3.76-8.14-3.16-9.38.87-.86 2.83-.21 6.79 3.09 7.57 1.8.43 3.91.13 5.19-1.31.24-.27.45-.92.79-.93l5.84 2.3c-1.2 3.63-5.22 5.63-8.86 5.9-5.89.44-11.3-1.92-12.65-8.09-1.07-4.88.14-10.49 4.71-13.11 5.18-2.97 14.8-1.79 17.24 4.34l-.01.02Z" style="fill:#fff;fill-rule:nonzero" transform="translate(-9.39 -3.08)"/><path d="M190.88 106.82h7.49v30.54h-7.49z" style="fill:#fff" transform="translate(-9.39 -3.08)"/><path d="M70.17 71.25h12.3c6.07 0 12.82 2.84 12.82 9.25 0 3.08-1.47 5.29-3.77 6.85 2.99 1.76 4.5 4.41 4.5 7.1 0 4.7-4.41 9.5-13.56 9.5H70.17v-32.7Zm8.57 6.05v7.84h2.69c3.52 0 5.34-2.01 5.34-3.92 0-1.91-1.76-3.92-5.34-3.92h-2.69Zm2.69 20.57c4.11 0 6.22-2.1 6.07-4.16-.15-1.96-2.15-3.87-6.07-3.87h-2.69v8.03h2.69ZM123.53 91.71c0-7.34-3.52-12.73-12.38-12.73-8.86 0-13.37 5.39-13.37 12.73 0 7.34 4.45 12.72 13.37 12.72 6.12 0 10.18-2.49 12.09-6.55l-7.09-2.84c-.79 1.71-2.3 2.78-4.99 2.78-3.33 0-4.9-1.66-5.44-4.16h17.82V91.7l-.01.01Zm-7.98-3.23-9.21-.02c-.71-.23.42-2.03.73-2.37 1.76-1.93 5.92-1.94 7.83-.17.48.44 1.83 2.43.64 2.57l.01-.01ZM134.35 71.25v12.97l8.57-12.97h8.57l-9.3 12.92 9.89 19.77h-8.57l-6.41-12.78-2.74 3.82v8.96h-8.57v-32.7h8.57l-.01.01ZM153.65 103.94V79.9c1.43 1.44 2.86 2.89 4.28 4.33 1.43-1.44 2.86-2.89 4.28-4.33 0 8.16.13 15.88.13 24.04h-8.69ZM165.48 103.95V79.47h5.68l2.89 2.89c1.81-2.3 3.92-3.38 7.24-3.38 5.87 0 7.64 4.65 7.64 9.5v15.47h-8.57V89.12c0-2.74-1.27-3.52-2.79-3.52-1.27 0-2.45.78-3.52 2.3v16.05h-8.57ZM211.76 103.94l-3.65-3.43c-2.25 3.43-5.58 3.92-7.49 3.92-4.11 0-8.96-3.82-8.96-12.73s5.14-12.73 9.79-12.73c1.81 0 4.65.49 6.61 3.23V70.16h8.57v33.77h-4.87v.01Zm-7.62-18.3c-4.94 0-5.34 12.14-.44 12.14 1.96 0 3.92-1.96 3.92-6.07s-1.52-6.07-3.48-6.07Z" style="fill:#fff;fill-rule:nonzero" transform="translate(-9.39 -3.08)"/><path d="m157.93 72.79 4.15-1.54 1.98 3.82-6.09 6.18-6.11-6.18 1.96-3.82 4.11 1.54Z" style="fill:#fff;fill-rule:nonzero" transform="translate(-9.39 -3.08)"/></svg>