<svg id="Layer_1" data-name="Layer 1" xmlns="http://www.w3.org/2000/svg" viewBox="0 0 256 256"><defs><style>.cls-1{fill:#27a4d5;}.cls-2{fill:#edf0f2;}.cls-3{fill:#bcbfc2;}.cls-4{fill:#e65336;}</style></defs><title>cheer-a-champ</title><rect class="cls-1" width="256" height="256"/><path class="cls-2" d="M124.5,63.8c-41.8,0-75.6,27.8-75.6,62.1,0,20.4,12,38.5,30.5,49.8l-8.2,35.1,29.6-25.9a91.62,91.62,0,0,0,23.7,3.1c41.8,0,75.6-27.8,75.6-62.1S166.2,63.8,124.5,63.8Z"/><rect class="cls-3" x="88.6" y="112.5" width="71.8" height="7.3"/><rect class="cls-3" x="88.6" y="139.2" width="71.8" height="7.3"/><path class="cls-4" d="M190.6,65a16.49,16.49,0,0,0-15.3,10.3,16.51,16.51,0,0,0-31.8,6.2c0,9.1,10.1,26,31.8,38.3,21.7-12,31.8-29.1,31.8-38.3A16.45,16.45,0,0,0,190.6,65Z"/></svg>