<svg id="Layer_1" data-name="Layer 1" xmlns="http://www.w3.org/2000/svg" viewBox="0 0 256 256"><defs><style>.cls-1{fill:#d6e1e2;}.cls-2{fill:#edf0f2;}.cls-3{fill:#f3b546;}.cls-4{fill:#dd9b2d;}.cls-5{fill:#1f84ab;}.cls-6{fill:#e65336;}.cls-7{fill:#fff;}</style></defs><title>disciple-a-dude</title><rect class="cls-1" width="256" height="256"/><rect class="cls-2" x="67.1" y="47" width="126.8" height="13.8"/><path class="cls-3" d="M78.3,212.2H193.9V57.2H72.8V211.1A16.32,16.32,0,0,0,78.3,212.2Z"/><path class="cls-4" d="M72.7,48.4H193.9V43.8H72.8A10.71,10.71,0,0,0,62.1,54.5V195.8A16.27,16.27,0,0,0,72.8,211V57.2a4.62,4.62,0,0,1-4.4-4.6A4.25,4.25,0,0,1,72.7,48.4Z"/><polygon class="cls-5" points="174.8 128.1 158.4 111.6 142 128.1 142 57.2 174.8 57.2 174.8 128.1"/><path class="cls-6" d="M144.2,158.2a15.33,15.33,0,0,0-27.5-9.3,15.33,15.33,0,0,0-27.5,9.3,15.4,15.4,0,0,0,3.7,10l23.8,24.7,23.8-24.7A16,16,0,0,0,144.2,158.2Z"/><rect class="cls-7" x="144.2" y="190.5" width="33.4" height="2.3"/></svg>