<svg id="Layer_1" data-name="Layer 1" xmlns="http://www.w3.org/2000/svg" viewBox="0 0 256 256"><defs><style>.cls-1{fill:#6db8e0;}.cls-2{fill:#f2cd56;}.cls-3{fill:#bf4028;}.cls-4{fill:#39b39b;}.cls-5{fill:#e65336;}</style></defs><title>praise-ya-parents</title><rect class="cls-1" width="256" height="256"/><path class="cls-2" d="M111.3,46c-38,0-68.8,23.2-68.8,51.8,0,14.9,8.3,28.3,21.7,37.7L48.7,163l30.7-19.3a87.2,87.2,0,0,0,32,6c38,0,68.8-23.2,68.8-51.8S149.4,46,111.3,46Z"/><path class="cls-3" d="M147.5,84.5a20.21,20.21,0,0,0-20.2-20.2,20,20,0,0,0-16,8A20.13,20.13,0,1,0,80,97.6l31.3,32.5,31.3-32.5A19.65,19.65,0,0,0,147.5,84.5Z"/><path class="cls-4" d="M153,107.2c33.4,0,60.5,20.4,60.5,45.5,0,13.1-7.3,24.8-19,33.1l13.6,24.1-26.9-17a77.2,77.2,0,0,1-28.1,5.2c-33.4,0-60.5-20.4-60.5-45.5S119.6,107.2,153,107.2Z"/><path class="cls-5" d="M178,143.8a14.62,14.62,0,0,0-14.6-14.6,14.39,14.39,0,0,0-11.6,5.8,14.57,14.57,0,0,0-26.2,8.8,13.83,13.83,0,0,0,3.6,9.5l22.7,23.6,22.7-23.6A15.47,15.47,0,0,0,178,143.8Z"/></svg>