<svg id="Layer_1" data-name="Layer 1" xmlns="http://www.w3.org/2000/svg" viewBox="0 0 256 256"><defs><style>.cls-1{fill:#1f84ab;}.cls-2{fill:#fad198;}.cls-3{fill:#e65336;}.cls-4{fill:#e5b375;}.cls-5{fill:#fbe0c8;}.cls-6{fill:#fff;}</style></defs><title>pray-for-your-peeps</title><rect class="cls-1" width="256" height="256"/><path class="cls-2" d="M14.5,105.3c5.1,2.8,10.3,5.7,14,10.2,3.1,3.7,5,8.1,6.9,12.5,2.5,5.9,5.1,11.8,7.6,17.7,1.4,3.2,2.8,6.6,5.3,9.1a28.11,28.11,0,0,0,5.1,4l15.9,10.8L122,205.3a4.49,4.49,0,0,0,2.7.8c2.8-.3,3.1-3.2,2.7-5.4-1.1-7.7-5.8-14.5-11-20.4s-11.2-11.1-15.7-17.4c-3.1-4.4-5.6-9.4-9.4-13.3-3.4-3.5-7.8-6.2-10.3-10.4-4.2-7.3-1.2-16.7,3.3-23.9A14.43,14.43,0,0,1,87,112c3.4-2.5,8.1-1,11.8,1a50.62,50.62,0,0,1,10.7,7.6c2.7,2.5,5.4,5.3,8.9,6.4,3.1,1,8,.2,9.3-4a2.4,2.4,0,0,0-.8-2.5c-6.1-4.4-7.3-12.8-12.5-18.6-2.5-2.8-6-4.5-9.4-6.1C94,90.6,82.7,85.3,70.9,81.5,53.4,76,16.9,68.19,0,61.09V97.67C3.1,99.27,11.4,103.6,14.5,105.3Z"/><path class="cls-2" d="M185.1,81.5c-11.8,3.7-23.1,9.1-34.3,14.4-3.4,1.6-6.9,3.3-9.4,6.1-5.3,5.8-6.4,14.2-12.5,18.6a2.23,2.23,0,0,0-.8,2.5c1.3,4.2,6.2,5,9.3,4,3.5-1.1,6.2-3.9,8.9-6.4a61.14,61.14,0,0,1,10.7-7.6c3.7-2,8.5-3.5,11.8-1a9.58,9.58,0,0,1,2.7,3.3c4.5,7.2,7.5,16.5,3.3,23.9-2.5,4.2-6.9,6.9-10.3,10.4-3.8,3.9-6.2,8.8-9.4,13.3-4.5,6.4-10.5,11.6-15.7,17.4s-9.9,12.6-11,20.4c-0.3,2.2-.1,5.1,2.7,5.4a3.77,3.77,0,0,0,2.7-.8l52.7-35.7,15.9-10.8a28.11,28.11,0,0,0,5.1-4c2.4-2.6,3.9-5.9,5.3-9.1,2.5-5.9,5.1-11.8,7.6-17.7,1.9-4.4,3.8-8.9,6.9-12.5,3.7-4.4,8.9-7.4,14-10.2,3.1-1.7,11.5-6.13,14.7-7.73V61.09C239.2,68.09,202.6,76,185.1,81.5Z"/><path class="cls-3" d="M140.8,131.9a13.92,13.92,0,0,0-12.8,8.6,13.81,13.81,0,0,0-26.6,5.2c0,7.6,8.5,21.8,26.7,32.1,18.2-10.1,26.7-24.4,26.7-32.1A13.87,13.87,0,0,0,140.8,131.9Z"/><path class="cls-4" d="M53.4,148.4c0.9,2.3,3.7,3,6,3.8a34.54,34.54,0,0,1,11.5,6.5c1.5,1.3,2.9,2.6,4.3,3.9,2.1,1.9,4.2,3.7,6.4,5.5,4.3,3.5,8.8,6.9,13.2,10.4,1.9,1.5,3.8,2.9,5.7,4.4,5,3.9,10.1,7.9,14,12.9,1,1.3,2.1,2.8,3.7,3.2a4,4,0,0,0,4.1-1.7,7.8,7.8,0,0,0,1.3-4.4c0.5,2.1,1.1,4.1,1.6,6.2a3.81,3.81,0,0,0-3.6-.3,6.9,6.9,0,0,1-3.7.6,5.57,5.57,0,0,1-2.2-1.3c-5.4-4.3-10.6-8.7-15.6-13.3a52,52,0,0,0-8.6-6.9,27.15,27.15,0,0,1-4.9-3.1c-1.1-1-2-2.3-3-3.4-3.6-4.3-8.7-7-13.1-10.5-3.2-2.6-6-5.8-9.9-7.1a36.44,36.44,0,0,1-4.7-1.4C54.4,151.7,53.1,150,53.4,148.4Z"/><path class="cls-5" d="M125.7,123.1a5.67,5.67,0,0,0,.8-1.3,2.35,2.35,0,0,0,.2-0.8l-0.9-.6a8.39,8.39,0,0,1-2.3-2.3,13,13,0,0,0-1.5-2.3,3.36,3.36,0,0,0-1.5.9,4,4,0,0,0-1.5,1.9c-0.3,1.3.5,2.5,1.4,3.5a13,13,0,0,0,2.2,1.9,8.34,8.34,0,0,0,1.2.8c0.2-.1.5-0.3,0.7-0.4A7.69,7.69,0,0,0,125.7,123.1Z"/><path class="cls-6" d="M126.8,121a1.88,1.88,0,0,1-.2.8,5.67,5.67,0,0,1-.8,1.3,7.69,7.69,0,0,1-1.2,1.3,1.61,1.61,0,0,1-.7.4,4.87,4.87,0,0,0,1.1.4h0.7a1,1,0,0,0,.5-0.4,9.06,9.06,0,0,0,1.1-1.6,1.93,1.93,0,0,0,.3-1A2,2,0,0,0,126.8,121Z"/><path class="cls-5" d="M117.6,198.2a1.88,1.88,0,0,0,.8-0.2l0.6-.3a1.76,1.76,0,0,0,.5-0.4,5.86,5.86,0,0,0-1.4-2.2c-0.9-.9-1.9-1.8-3.1-1.8a1.33,1.33,0,0,0-1.4.9c0.5,0.5,1,1.1,1.5,1.6a7,7,0,0,1,.8,1,4.28,4.28,0,0,0,.9,1.3h0.6C117.3,198.2,117.5,198.2,117.6,198.2Z"/><path class="cls-6" d="M119.5,197.3a2.18,2.18,0,0,1-.5.4l-0.6.3a2.35,2.35,0,0,1-.8.2h-1l0.1,0.1a3.1,3.1,0,0,0,1.3.6,1,1,0,0,0,.9,0,1.37,1.37,0,0,0,.6-1.6h0Z"/><path class="cls-6" d="M125.9,203.9a2.09,2.09,0,0,0-.4-0.6,3.51,3.51,0,0,1-.5.8,8.75,8.75,0,0,1-.8,1,4.05,4.05,0,0,1-.9.5l1.1,0.3h0.4a1,1,0,0,0,.5-0.4A2.16,2.16,0,0,0,125.9,203.9Z"/><path class="cls-5" d="M124.9,204.1a5.58,5.58,0,0,0,.5-0.8l-0.3-.3c-0.3-.2-0.6-0.5-0.9-0.7a18.76,18.76,0,0,0-1.8-1.2,3.07,3.07,0,0,0-2.1-.2,1.56,1.56,0,0,0-1.2,1.8,2.5,2.5,0,0,0,1.3,1.4c0.4,0.2.7,0.5,1.1,0.7a15.38,15.38,0,0,0,1.9.8,4.05,4.05,0,0,0,.9-0.5A5.3,5.3,0,0,1,124.9,204.1Z"/><path class="cls-4" d="M111.4,122.4a17.36,17.36,0,0,0,5,3.5,6.46,6.46,0,0,0,5.9-.1,26.59,26.59,0,0,1-13.4-7.4,4.76,4.76,0,0,1-1.8-3.2c-0.1-2.1,1.8-3.6,3.6-4.7a10.73,10.73,0,0,1-6.2,2.3c0.4-.6.7-1.3,1.1-1.9l-11.1-1.5a5.27,5.27,0,0,1-2.4-.8,5.44,5.44,0,0,1-1.1-1.8c-0.9-2.1-1.8-4.3-2.7-6.4,0.6,2.3,1.3,4.6,1.9,6.9-1.3-.5-2.7-1-4-1.5-0.1.9-.2,1.7-0.3,2.6a10,10,0,0,1-4.2-2.8,5.71,5.71,0,0,1,.8,5.2c-0.7,1.7-2.9,2.8-4.5,1.8a1.67,1.67,0,0,0,.5,2.4,13.28,13.28,0,0,0-2.2,8,5.31,5.31,0,0,1-.1,1.8c-0.8,1.9-3.9,1.2-5.6,2.4,1.6,0.8,3.1,1.6,4.7,2.4-0.2.6-.4,1.1-0.6,1.7,1.6,0.9,1.5,3.2,1.8,5,0.5,3.7,3.1,6.7,5.9,9.1s6.1,4.3,8.6,7c5.9,6.1,8.2,15.9,15.8,19.7-7.4-5.7-10.2-15.7-16.9-22.2-2.9-2.8-6.4-4.9-8.7-8.2-4.5-6.4-2.8-15.2.1-22.5,1.5-3.7,3.5-7.6,7.2-9.2,2.8-1.2,6.1-.6,8.8.7a31.35,31.35,0,0,1,7.3,5.4C106.8,118.3,109.1,120.4,111.4,122.4Z"/><path class="cls-4" d="M202.6,148.4c-0.9,2.3-3.7,3-6,3.8a34.54,34.54,0,0,0-11.5,6.5c-1.5,1.3-2.9,2.6-4.3,3.9-2.1,1.9-4.2,3.7-6.4,5.5-4.3,3.5-8.8,6.9-13.2,10.4-1.9,1.5-3.8,2.9-5.7,4.4-5,3.9-10.1,7.9-14,12.9-1,1.3-2.1,2.8-3.7,3.2a4,4,0,0,1-4.1-1.7,7.58,7.58,0,0,1-1.3-4.4c-0.5,2.1-1.1,4.1-1.6,6.2a3.81,3.81,0,0,1,3.6-.3,6.9,6.9,0,0,0,3.7.6,5.57,5.57,0,0,0,2.2-1.3c5.4-4.3,10.6-8.7,15.6-13.3a52,52,0,0,1,8.6-6.9,27.15,27.15,0,0,0,4.9-3.1c1.1-1,2-2.3,3-3.4,3.6-4.3,8.7-7,13.1-10.5,3.2-2.6,6-5.8,9.9-7.1a36.44,36.44,0,0,0,4.7-1.4C201.6,151.6,202.9,150,202.6,148.4Z"/><path class="cls-5" d="M130.3,123.1a5.67,5.67,0,0,1-.8-1.3,2.35,2.35,0,0,1-.2-0.8l0.9-.6a8.39,8.39,0,0,0,2.3-2.3,13,13,0,0,1,1.5-2.3,3.36,3.36,0,0,1,1.5.9,4,4,0,0,1,1.5,1.9c0.3,1.3-.5,2.5-1.4,3.5a13,13,0,0,1-2.2,1.9,8.34,8.34,0,0,1-1.2.8c-0.2-.1-0.5-0.3-0.7-0.4A7.69,7.69,0,0,1,130.3,123.1Z"/><path class="cls-6" d="M129.2,121a1.88,1.88,0,0,0,.2.8,5.67,5.67,0,0,0,.8,1.3,7.69,7.69,0,0,0,1.2,1.3,1.61,1.61,0,0,0,.7.4,4.87,4.87,0,0,1-1.1.4h-0.7a1,1,0,0,1-.5-0.4,9.06,9.06,0,0,1-1.1-1.6,1.93,1.93,0,0,1-.3-1A2,2,0,0,1,129.2,121Z"/><path class="cls-5" d="M138.4,198.2a1.88,1.88,0,0,1-.8-0.2l-0.6-.3a1.76,1.76,0,0,1-.5-0.4,5.86,5.86,0,0,1,1.4-2.2c0.9-.9,1.9-1.8,3.1-1.8a1.33,1.33,0,0,1,1.4.9c-0.5.5-1,1.1-1.5,1.6a7,7,0,0,0-.8,1,4.28,4.28,0,0,1-.9,1.3h-0.6C138.7,198.2,138.5,198.2,138.4,198.2Z"/><path class="cls-6" d="M136.5,197.3a2.18,2.18,0,0,0,.5.4l0.6,0.3a2.35,2.35,0,0,0,.8.2h1l-0.1.1a3.1,3.1,0,0,1-1.3.6,1,1,0,0,1-.9,0,1.37,1.37,0,0,1-.6-1.6h0Z"/><path class="cls-6" d="M130.1,203.9a2.09,2.09,0,0,1,.4-0.6,3.51,3.51,0,0,0,.5.8,8.75,8.75,0,0,0,.8,1,4.05,4.05,0,0,0,.9.5l-1.1.3h-0.4a1,1,0,0,1-.5-0.4A2.16,2.16,0,0,1,130.1,203.9Z"/><path class="cls-5" d="M131.1,204.1a5.58,5.58,0,0,1-.5-0.8l0.3-.3c0.3-.2.6-0.5,0.9-0.7a18.76,18.76,0,0,1,1.8-1.2,3.07,3.07,0,0,1,2.1-.2,1.56,1.56,0,0,1,1.2,1.8,2.5,2.5,0,0,1-1.3,1.4c-0.4.2-.7,0.5-1.1,0.7a15.39,15.39,0,0,1-1.9.8,4.05,4.05,0,0,1-.9-0.5A5.3,5.3,0,0,0,131.1,204.1Z"/><path class="cls-4" d="M144.6,122.4a17.36,17.36,0,0,1-5,3.5,6.46,6.46,0,0,1-5.9-.1,26.59,26.59,0,0,0,13.4-7.4,4.76,4.76,0,0,0,1.8-3.2c0.1-2.1-1.8-3.6-3.6-4.7a10.73,10.73,0,0,0,6.2,2.3c-0.4-.6-0.7-1.3-1.1-1.9l11.1-1.5a5.27,5.27,0,0,0,2.4-.8,5.44,5.44,0,0,0,1.1-1.8c0.9-2.1,1.8-4.3,2.7-6.4-0.6,2.3-1.3,4.6-1.9,6.9,1.3-.5,2.7-1,4-1.5,0.1,0.9.2,1.7,0.3,2.6a10,10,0,0,0,4.2-2.8,5.71,5.71,0,0,0-.8,5.2c0.7,1.7,2.9,2.8,4.5,1.8a1.67,1.67,0,0,1-.5,2.4,13.28,13.28,0,0,1,2.2,8,5.31,5.31,0,0,0,.1,1.8c0.8,1.9,3.9,1.2,5.6,2.4-1.6.8-3.1,1.6-4.7,2.4,0.2,0.6.4,1.1,0.6,1.7-1.6.9-1.5,3.2-1.8,5-0.5,3.7-3.1,6.7-5.9,9.1s-6.1,4.3-8.6,7c-5.9,6.1-8.2,15.9-15.8,19.7,7.4-5.7,10.2-15.7,16.9-22.2,2.9-2.8,6.4-4.9,8.7-8.2,4.5-6.4,2.8-15.2-.1-22.5-1.5-3.7-3.5-7.6-7.2-9.2-2.8-1.2-6.1-.6-8.8.7a31.35,31.35,0,0,0-7.3,5.4C149.2,118.3,146.9,120.4,144.6,122.4Z"/></svg>