<svg id="Layer_1" data-name="Layer 1" xmlns="http://www.w3.org/2000/svg" viewBox="0 0 256 256"><defs><style>.cls-1{fill:#4294b8;}.cls-2{fill:#f2cd56;}.cls-3{fill:#edf0f2;}.cls-4{fill:#d8b43f;}.cls-5{fill:#bcbfc2;}.cls-6{fill:#e65336;}</style></defs><title>scribble-a-scripture</title><rect class="cls-1" width="256" height="256"/><polygon class="cls-2" points="204.3 96.9 128 41.6 51.7 96.9 51.4 96.9 51.4 194 204.6 194 204.6 96.9 204.3 96.9"/><rect class="cls-3" x="73.5" y="64.5" width="109" height="105.2"/><polygon class="cls-2" points="137.3 145.4 118.7 145.4 51.7 194 204.3 194 137.3 145.4"/><polygon class="cls-4" points="51.4 194.1 120.4 145.5 51.4 96.9 51.4 194.1"/><polygon class="cls-4" points="204.6 194.1 135.6 145.5 204.6 96.9 204.6 194.1"/><rect class="cls-5" x="135.6" y="84.6" width="30.3" height="2.5"/><rect class="cls-5" x="135.6" y="102.8" width="30.3" height="2.5"/><rect class="cls-5" x="91.5" y="121.1" width="74.4" height="2.5"/><path class="cls-6" d="M126.2,89.5a11.61,11.61,0,0,0-11.6-11.6,11.75,11.75,0,0,0-9.3,4.6,11.63,11.63,0,0,0-20.9,7,12,12,0,0,0,2.8,7.6l18.1,18.7,18.1-18.7A11.82,11.82,0,0,0,126.2,89.5Z"/></svg>